<svg xmlns="http://www.w3.org/2000/svg" xmlns:xlink="http://www.w3.org/1999/xlink" viewBox="0 0 1232.86 560.58"><defs><style>.a{fill:url(#a);}.b{fill:url(#b);}.c{fill:url(#c);}.d{fill:url(#d);}.e{fill:url(#e);}.f{fill:url(#f);}.g{fill:url(#g);}.h{fill:url(#h);}</style><linearGradient id="a" x1="952.44" y1="1009.91" x2="952.44" y2="455.29" gradientTransform="translate(0 -454)" gradientUnits="userSpaceOnUse"><stop offset="0" stop-color="#e09b3d"/><stop offset="0.28" stop-color="#c74c4d"/><stop offset="0.59" stop-color="#c21975"/><stop offset="1" stop-color="#7024c4"/></linearGradient><linearGradient id="b" x1="952.5" y1="1003.43" x2="952.5" y2="458.28" gradientTransform="translate(0 -454)" gradientUnits="userSpaceOnUse"><stop offset="0" stop-color="#e09b3d"/><stop offset="0.3" stop-color="#c74c4d"/><stop offset="0.6" stop-color="#c21975"/><stop offset="1" stop-color="#7024c4"/></linearGradient><linearGradient id="c" x1="1095.32" y1="1003.43" x2="1095.32" y2="458.28" xlink:href="#b"/><linearGradient id="d" x1="112.2" y1="749.47" x2="112.2" y2="500.4" gradientTransform="translate(0 -216)" gradientUnits="userSpaceOnUse"><stop offset="0" stop-color="#e09b3d"/><stop offset="0.23" stop-color="#c74c4d"/><stop offset="0.51" stop-color="#c21975"/></linearGradient><linearGradient id="e" x1="288.39" y1="738.72" x2="288.39" y2="595.91" xlink:href="#d"/><linearGradient id="f" x1="386.63" y1="737.9" x2="386.63" y2="588.15" xlink:href="#d"/><linearGradient id="g" x1="506.39" y1="735.18" x2="506.39" y2="492.53" xlink:href="#d"/><linearGradient id="h" x1="629.13" y1="744.69" x2="629.13" y2="576.61" xlink:href="#d"/></defs><title>pecha</title><path class="a" d="M1063.9,0C918.7,0,693.2-39.4,677,164.2,665.5,308.5,647.4,535.6,841.2,551c144.4,11.5,371.4,29.9,386.9-164.2C1238.6,253.6,1259.1,0,1063.9,0Zm108.7,386.9c0,141.8-237.5,121.4-331.4,108.7C703.7,477.1,711.3,259.9,733.9,151.7c26.3-125.8,240.9-115,342.5-94.8C1214.4,84.4,1172.6,282.9,1172.6,386.9Z" transform="translate(-1.49 3.07)"/><path class="b" d="M952.5,133c-183.8,0-183.8,285,0,285S1136.3,133,952.5,133Zm0,229.6c-111.6,0-111.6-174.2,0-174.2C1063.5,188.4,1065.3,362.6,952.5,362.6Z" transform="translate(-1.49 3.07)"/><path class="c" d="M1095.3,99.9c44.2,0,44.2,68.3,0,68.3S1051.2,99.9,1095.3,99.9Z" transform="translate(-1.49 3.07)"/><path class="d" d="M222.9,364.7c0,42-48.5,131.6-100.8,92.1-1.4,16.6,8.1,82.2-14.8,76.3C66.2,522.4,93,343.1,98.6,308c-39.7,6.7-47.3,30.5-68.9,47.9,11-8.9-24.2,64.9-28.1,8.4C-4.1,279.1,222.9,238.2,222.9,364.7Zm-24.5-15.1c0-47.2-57.7-49.3-91.7-43.4,41.6,10.1,11.4,71.1,17.8,100C141.9,486.1,198.4,401.9,198.4,349.6Z" transform="translate(-1.49 3.07)"/><path class="e" d="M341.2,461.6c0,47.9-58.2,84.3-93.3,43.4-23.7-27.6-12.3-115.6,26.2-123.8,69.1-14.7,42.6,101.7-8.2,87.1-3.1,35.7,23.8,37.2,48.9,27.9C336.7,488.1,320.1,442.3,341.2,461.6Zm-41.3-54.2c0-23.5-42.2,23.9-31,45.7C279.4,473.4,300.5,415.4,299.9,407.4Z" transform="translate(-1.49 3.07)"/><path class="f" d="M436.7,484c-31.5,74.7-111.6,27.1-101.1-40.4,3.9-24.7,42.2-91.8,78.5-65.4,8.5,6.2,13.4,45.6.9,45.6-16.2-1.3-6.5-32.9-30.6-22.8-20.5,8.6-28.3,52.8-21.1,72.4,16.1,43.7,50,36.9,70.6-2.4C439,474.5,440,478.8,436.7,484Z" transform="translate(-1.49 3.07)"/><path class="g" d="M575.3,465.8c-2.3,31.4-27.9,62.6-60,46.5-22.2-11.1-16.4-74.2-14.5-93.5-14.1,25.9-21.2,137.9-56.5,87.5-16-22.9,1.2-121.6,1.2-149.5,0-32.6-9-62.4,12.1-76.7,35.1-23.9,16.2,79.4,15.6,92.8-1.5,30.9-1.3,62-1.8,92.9,0-29.4,30.7-120.4,60.8-64.9,9.8,18-24.6,71.6-4.5,88.4,39.3,32.6,21.7-38.2,41-38.2C578.1,451.1,573.8,461.1,575.3,465.8Z" transform="translate(-1.49 3.07)"/><path class="h" d="M697.5,477.4c-4.9,34.4-55.4,60.4-61.6,8.1C575,648,503.4,294,632.1,372c20.8,12.6,26.4,50.2,29,70.3,1.7,13.2-11.6,48.2,6.3,56.4,20.6,9.4,15.2-35.8,25.5-35.8C698.9,463,698.3,473.4,697.5,477.4Zm-64.8-56.7c0-74-80.8,33.4-46.6,73.5C623.1,537.4,622.3,446,632.7,420.7Z" transform="translate(-1.49 3.07)"/></svg>